<?xml version="1.0" encoding="UTF-8" standalone="no"?><svg xmlns="http://www.w3.org/2000/svg" xmlns:xlink="http://www.w3.org/1999/xlink" clip-rule="evenodd" stroke-miterlimit="4.00" viewBox="0 0 1024 768"><desc>SVG generated by Keynote</desc><defs></defs><g transform="matrix(1.00, 0.00, -0.00, -1.00, 0.0, 768.0)"><path d="M 0.0 768.0 L 1024.0 768.0 L 1024.0 0.0 L 0.0 0.0 Z M 0.0 768.0 " fill="#232121"></path><g><clipPath id="clip-67"><path d="M 440.0 302.0 L 584.0 302.0 L 584.0 466.0 L 440.0 466.0 Z M 440.0 302.0 "></path></clipPath><g clip-path="url(#clip-67)"><path d="M 477.2 463.3 L 440.0 445.0 L 447.4 436.3 L 447.4 352.9 L 477.2 382.6 Z M 477.2 463.3 " fill="#000000"></path></g></g><g><clipPath id="clip-68"><path d="M 404.3 491.8 L 620.3 491.8 L 620.3 276.8 L 404.3 276.8 Z M 404.3 491.8 "></path></clipPath><g clip-path="url(#clip-68)"><g><clipPath id="clip-69"><path d="M 440.0 302.0 L 584.0 302.0 L 584.0 466.0 L 440.0 466.0 Z M 440.0 302.0 "></path></clipPath><g clip-path="url(#clip-69)"><path d="M 511.7 334.9 C 511.7 330.3 508.6 328.4 505.2 328.4 C 500.6 328.4 499.5 331.1 499.5 334.2 L 499.5 360.4 L 499.3 360.4 L 484.6 345.7 L 484.6 330.7 C 484.6 322.5 489.0 315.2 499.3 315.2 C 503.8 315.2 508.4 317.1 511.7 320.2 L 511.7 316.2 L 526.7 316.2 L 526.7 360.4 L 511.7 360.4 Z M 511.7 334.9 " fill="#FFFFFF"></path><path d="M 559.2 328.0 C 553.4 328.0 550.6 332.7 550.6 338.3 C 550.6 344.0 553.3 348.6 559.2 348.6 C 564.8 348.6 567.5 343.9 567.5 338.3 C 567.5 332.9 564.8 328.0 559.2 328.0 M 563.2 361.3 C 558.1 361.3 553.9 359.5 550.6 356.2 L 550.6 360.4 L 535.5 360.4 L 535.5 302.0 L 550.6 302.0 L 550.6 320.2 C 553.9 317.1 558.1 315.2 563.2 315.2 C 575.6 315.2 583.3 325.1 583.3 338.2 C 583.3 351.2 575.6 361.3 563.2 361.3 " fill="#FFFFFF"></path><path d="M 535.9 466.0 C 509.4 466.0 487.8 444.6 487.8 418.2 C 487.8 410.9 489.5 404.0 492.5 397.8 L 493.0 397.3 L 522.7 426.8 L 513.3 436.1 L 554.0 436.1 L 554.0 395.7 L 544.6 405.0 L 514.8 375.3 C 521.2 372.1 528.3 370.3 535.9 370.3 C 562.5 370.3 584.0 391.7 584.0 418.2 C 584.0 444.6 562.5 466.0 535.9 466.0 " fill="#000000"></path></g></g></g></g><text xml:space="preserve" font-family="ProximaNova-Light" font-size="20.0" fill="#FEFFFF" transform="matrix(1.00, 0.00, -0.00, -1.00, 559.9, 737.2)">n</text><text xml:space="preserve" font-family="ProximaNova-Light" font-size="20.0" fill="#FEFFFF" transform="matrix(1.00, 0.00, -0.00, -1.00, 570.7, 737.2)">a</text><text xml:space="preserve" font-family="ProximaNova-Light" font-size="20.0" fill="#FEFFFF" transform="matrix(1.00, 0.00, -0.00, -1.00, 581.1, 737.2)">m</text><text xml:space="preserve" font-family="ProximaNova-Light" font-size="20.0" fill="#FEFFFF" transform="matrix(1.00, 0.00, -0.00, -1.00, 596.9, 737.2)">e</text><text xml:space="preserve" font-family="ProximaNova-Light" font-size="20.0" fill="#FEFFFF" transform="matrix(1.00, 0.00, -0.00, -1.00, 608.2, 737.2)"> </text><text xml:space="preserve" font-family="ProximaNova-Light" font-size="20.0" fill="#FEFFFF" transform="matrix(1.00, 0.00, -0.00, -1.00, 613.4, 737.2)">•</text><text xml:space="preserve" font-family="ProximaNova-Light" font-size="20.0" fill="#FEFFFF" transform="matrix(1.00, 0.00, -0.00, -1.00, 620.5, 737.2)"> </text><text xml:space="preserve" font-family="ProximaNova-Light" font-size="20.0" fill="#FEFFFF" transform="matrix(1.00, 0.00, -0.00, -1.00, 625.7, 737.2)">@</text><text xml:space="preserve" font-family="ProximaNova-Light" font-size="20.0" fill="#FEFFFF" transform="matrix(1.00, 0.00, -0.00, -1.00, 641.4, 737.2)">t</text><text xml:space="preserve" font-family="ProximaNova-Light" font-size="20.0" fill="#FEFFFF" transform="matrix(1.00, 0.00, -0.00, -1.00, 646.9, 737.2)">w</text><text xml:space="preserve" font-family="ProximaNova-Light" font-size="20.0" fill="#FEFFFF" transform="matrix(1.00, 0.00, -0.00, -1.00, 661.3, 737.2)">i</text><text xml:space="preserve" font-family="ProximaNova-Light" font-size="20.0" fill="#FEFFFF" transform="matrix(1.00, 0.00, -0.00, -1.00, 665.5, 737.2)">t</text><text xml:space="preserve" font-family="ProximaNova-Light" font-size="20.0" fill="#FEFFFF" transform="matrix(1.00, 0.00, -0.00, -1.00, 671.0, 737.2)">t</text><text xml:space="preserve" font-family="ProximaNova-Light" font-size="20.0" fill="#FEFFFF" transform="matrix(1.00, 0.00, -0.00, -1.00, 676.5, 737.2)">e</text><text xml:space="preserve" font-family="ProximaNova-Light" font-size="20.0" fill="#FEFFFF" transform="matrix(1.00, 0.00, -0.00, -1.00, 687.9, 737.2)">r</text><text xml:space="preserve" font-family="ProximaNova-Light" font-size="20.0" fill="#FEFFFF" transform="matrix(1.00, 0.00, -0.00, -1.00, 694.2, 737.2)"> </text><text xml:space="preserve" font-family="ProximaNova-Light" font-size="20.0" fill="#FEFFFF" transform="matrix(1.00, 0.00, -0.00, -1.00, 699.4, 737.2)">•</text><text xml:space="preserve" font-family="ProximaNova-Light" font-size="20.0" fill="#FEFFFF" transform="matrix(1.00, 0.00, -0.00, -1.00, 706.6, 737.2)"> </text><text xml:space="preserve" font-family="ProximaNova-Light" font-size="20.0" fill="#FEFFFF" transform="matrix(1.00, 0.00, -0.00, -1.00, 711.7, 737.2)">#</text><text xml:space="preserve" font-family="ProximaNova-Light" font-size="20.0" fill="#FEFFFF" transform="matrix(1.00, 0.00, -0.00, -1.00, 723.3, 737.2)">h</text><text xml:space="preserve" font-family="ProximaNova-Light" font-size="20.0" fill="#FEFFFF" transform="matrix(1.00, 0.00, -0.00, -1.00, 734.1, 737.2)">a</text><text xml:space="preserve" font-family="ProximaNova-Light" font-size="20.0" fill="#FEFFFF" transform="matrix(1.00, 0.00, -0.00, -1.00, 744.5, 737.2)">s</text><text xml:space="preserve" font-family="ProximaNova-Light" font-size="20.0" fill="#FEFFFF" transform="matrix(1.00, 0.00, -0.00, -1.00, 753.7, 737.2)">h</text><text xml:space="preserve" font-family="ProximaNova-Light" font-size="20.0" fill="#FEFFFF" transform="matrix(1.00, 0.00, -0.00, -1.00, 764.5, 737.2)">t</text><text xml:space="preserve" font-family="ProximaNova-Light" font-size="20.0" fill="#FEFFFF" transform="matrix(1.00, 0.00, -0.00, -1.00, 770.0, 737.2)">a</text><text xml:space="preserve" font-family="ProximaNova-Light" font-size="20.0" fill="#FEFFFF" transform="matrix(1.00, 0.00, -0.00, -1.00, 780.4, 737.2)">g</text><text xml:space="preserve" font-family="ProximaNova-Light" font-size="20.0" fill="#FEFFFF" transform="matrix(1.00, 0.00, -0.00, -1.00, 791.8, 737.2)"> </text><text xml:space="preserve" font-family="ProximaNova-Light" font-size="20.0" fill="#FEFFFF" transform="matrix(1.00, 0.00, -0.00, -1.00, 797.0, 737.2)">•</text><text xml:space="preserve" font-family="ProximaNova-Light" font-size="20.0" fill="#FEFFFF" transform="matrix(1.00, 0.00, -0.00, -1.00, 804.2, 737.2)"> </text><text xml:space="preserve" font-family="ProximaNova-Light" font-size="20.0" fill="#FEFFFF" transform="matrix(1.00, 0.00, -0.00, -1.00, 809.4, 737.2)">w</text><text xml:space="preserve" font-family="ProximaNova-Light" font-size="20.0" fill="#FEFFFF" transform="matrix(1.00, 0.00, -0.00, -1.00, 823.7, 737.2)">w</text><text xml:space="preserve" font-family="ProximaNova-Light" font-size="20.0" fill="#FEFFFF" transform="matrix(1.00, 0.00, -0.00, -1.00, 838.1, 737.2)">w</text><text xml:space="preserve" font-family="ProximaNova-Light" font-size="20.0" fill="#FEFFFF" transform="matrix(1.00, 0.00, -0.00, -1.00, 851.6, 737.2)">.</text><text xml:space="preserve" font-family="ProximaNova-Light" font-size="20.0" fill="#FEFFFF" transform="matrix(1.00, 0.00, -0.00, -1.00, 855.9, 737.2)">u</text><text xml:space="preserve" font-family="ProximaNova-Light" font-size="20.0" fill="#FEFFFF" transform="matrix(1.00, 0.00, -0.00, -1.00, 866.7, 737.2)">r</text><text xml:space="preserve" font-family="ProximaNova-Light" font-size="20.0" fill="#FEFFFF" transform="matrix(1.00, 0.00, -0.00, -1.00, 873.1, 737.2)">l</text><text xml:space="preserve" font-family="ProximaNova-Light" font-size="20.0" fill="#FEFFFF" transform="matrix(1.00, 0.00, -0.00, -1.00, 877.4, 737.2)">.</text><text xml:space="preserve" font-family="ProximaNova-Light" font-size="20.0" fill="#FEFFFF" transform="matrix(1.00, 0.00, -0.00, -1.00, 881.6, 737.2)">c</text><text xml:space="preserve" font-family="ProximaNova-Light" font-size="20.0" fill="#FEFFFF" transform="matrix(1.00, 0.00, -0.00, -1.00, 891.4, 737.2)">o</text><text xml:space="preserve" font-family="ProximaNova-Light" font-size="20.0" fill="#FEFFFF" transform="matrix(1.00, 0.00, -0.00, -1.00, 902.9, 737.2)">m</text><text xml:space="preserve" font-family="ProximaNova-Light" font-size="20.0" fill="#FEFFFF" transform="matrix(1.00, 0.00, -0.00, -1.00, 918.6, 737.2)">/</text><text xml:space="preserve" font-family="ProximaNova-Light" font-size="20.0" fill="#FEFFFF" transform="matrix(1.00, 0.00, -0.00, -1.00, 924.3, 737.2)">s</text><text xml:space="preserve" font-family="ProximaNova-Light" font-size="20.0" fill="#FEFFFF" transform="matrix(1.00, 0.00, -0.00, -1.00, 933.5, 737.2)">l</text><text xml:space="preserve" font-family="ProximaNova-Light" font-size="20.0" fill="#FEFFFF" transform="matrix(1.00, 0.00, -0.00, -1.00, 937.7, 737.2)">i</text><text xml:space="preserve" font-family="ProximaNova-Light" font-size="20.0" fill="#FEFFFF" transform="matrix(1.00, 0.00, -0.00, -1.00, 942.0, 737.2)">d</text><text xml:space="preserve" font-family="ProximaNova-Light" font-size="20.0" fill="#FEFFFF" transform="matrix(1.00, 0.00, -0.00, -1.00, 953.4, 737.2)">e</text><text xml:space="preserve" font-family="ProximaNova-Light" font-size="20.0" fill="#FEFFFF" transform="matrix(1.00, 0.00, -0.00, -1.00, 964.8, 737.2)">s</text><g><clipPath id="clip-70"><path d="M 808.4 733.5 L 974.0 733.5 L 974.0 735.9 L 808.4 735.9 Z M 808.4 733.5 "></path></clipPath><g clip-path="url(#clip-70)"><path d="M 254.5 26.3 L 419.1 26.3 " fill="none" stroke="#FEFFFF" stroke-width="0.40" stroke-miterlimit="0.00" transform="matrix(1.00, 0.00, 0.00, -1.00, 554.9, 761.0)"></path></g></g></g></svg>