<?xml version="1.0" encoding="UTF-8" standalone="no"?><svg xmlns="http://www.w3.org/2000/svg" xmlns:xlink="http://www.w3.org/1999/xlink" clip-rule="evenodd" stroke-miterlimit="4.00" viewBox="0 0 1024 768"><desc>SVG generated by Keynote</desc><defs></defs><g transform="matrix(1.00, 0.00, -0.00, -1.00, 0.0, 768.0)"><path d="M 0.0 768.0 L 1024.0 768.0 L 1024.0 0.0 L 0.0 0.0 Z M 0.0 768.0 " fill="#232121"></path><text xml:space="preserve" font-family="ProximaNova-Light" font-size="20.0" fill="#FEFFFF" transform="matrix(1.00, 0.00, -0.00, -1.00, 460.9, 737.2)">M</text><text xml:space="preserve" font-family="ProximaNova-Light" font-size="20.0" fill="#FEFFFF" transform="matrix(1.00, 0.00, -0.00, -1.00, 476.7, 737.2)">a</text><text xml:space="preserve" font-family="ProximaNova-Light" font-size="20.0" fill="#FEFFFF" transform="matrix(1.00, 0.00, -0.00, -1.00, 487.1, 737.2)">r</text><text xml:space="preserve" font-family="ProximaNova-Light" font-size="20.0" fill="#FEFFFF" transform="matrix(1.00, 0.00, -0.00, -1.00, 493.4, 737.2)">i</text><text xml:space="preserve" font-family="ProximaNova-Light" font-size="20.0" fill="#FEFFFF" transform="matrix(1.00, 0.00, -0.00, -1.00, 497.7, 737.2)">o</text><text xml:space="preserve" font-family="ProximaNova-Light" font-size="20.0" fill="#FEFFFF" transform="matrix(1.00, 0.00, -0.00, -1.00, 509.1, 737.2)"> </text><text xml:space="preserve" font-family="ProximaNova-Light" font-size="20.0" fill="#FEFFFF" transform="matrix(1.00, 0.00, -0.00, -1.00, 514.3, 737.2)">A</text><text xml:space="preserve" font-family="ProximaNova-Light" font-size="20.0" fill="#FEFFFF" transform="matrix(1.00, 0.00, -0.00, -1.00, 527.3, 737.2)">g</text><text xml:space="preserve" font-family="ProximaNova-Light" font-size="20.0" fill="#FEFFFF" transform="matrix(1.00, 0.00, -0.00, -1.00, 538.7, 737.2)">u</text><text xml:space="preserve" font-family="ProximaNova-Light" font-size="20.0" fill="#FEFFFF" transform="matrix(1.00, 0.00, -0.00, -1.00, 549.5, 737.2)">i</text><text xml:space="preserve" font-family="ProximaNova-Light" font-size="20.0" fill="#FEFFFF" transform="matrix(1.00, 0.00, -0.00, -1.00, 553.7, 737.2)">a</text><text xml:space="preserve" font-family="ProximaNova-Light" font-size="20.0" fill="#FEFFFF" transform="matrix(1.00, 0.00, -0.00, -1.00, 564.2, 737.2)">r</text><text xml:space="preserve" font-family="ProximaNova-Light" font-size="20.0" fill="#FEFFFF" transform="matrix(1.00, 0.00, -0.00, -1.00, 570.5, 737.2)"> </text><text xml:space="preserve" font-family="ProximaNova-Light" font-size="20.0" fill="#FEFFFF" transform="matrix(1.00, 0.00, -0.00, -1.00, 575.7, 737.2)">•</text><text xml:space="preserve" font-family="ProximaNova-Light" font-size="20.0" fill="#FEFFFF" transform="matrix(1.00, 0.00, -0.00, -1.00, 582.8, 737.2)"> </text><text xml:space="preserve" font-family="ProximaNova-Light" font-size="20.0" fill="#FEFFFF" transform="matrix(1.00, 0.00, -0.00, -1.00, 588.0, 737.2)">@</text><text xml:space="preserve" font-family="ProximaNova-Light" font-size="20.0" fill="#FEFFFF" transform="matrix(1.00, 0.00, -0.00, -1.00, 603.7, 737.2)">e</text><text xml:space="preserve" font-family="ProximaNova-Light" font-size="20.0" fill="#FEFFFF" transform="matrix(1.00, 0.00, -0.00, -1.00, 615.0, 737.2)">m</text><text xml:space="preserve" font-family="ProximaNova-Light" font-size="20.0" fill="#FEFFFF" transform="matrix(1.00, 0.00, -0.00, -1.00, 630.8, 737.2)">e</text><text xml:space="preserve" font-family="ProximaNova-Light" font-size="20.0" fill="#FEFFFF" transform="matrix(1.00, 0.00, -0.00, -1.00, 642.1, 737.2)">a</text><text xml:space="preserve" font-family="ProximaNova-Light" font-size="20.0" fill="#FEFFFF" transform="matrix(1.00, 0.00, -0.00, -1.00, 652.6, 737.2)">g</text><text xml:space="preserve" font-family="ProximaNova-Light" font-size="20.0" fill="#FEFFFF" transform="matrix(1.00, 0.00, -0.00, -1.00, 664.0, 737.2)">u</text><text xml:space="preserve" font-family="ProximaNova-Light" font-size="20.0" fill="#FEFFFF" transform="matrix(1.00, 0.00, -0.00, -1.00, 674.8, 737.2)">i</text><text xml:space="preserve" font-family="ProximaNova-Light" font-size="20.0" fill="#FEFFFF" transform="matrix(1.00, 0.00, -0.00, -1.00, 679.0, 737.2)">a</text><text xml:space="preserve" font-family="ProximaNova-Light" font-size="20.0" fill="#FEFFFF" transform="matrix(1.00, 0.00, -0.00, -1.00, 689.5, 737.2)">r</text><text xml:space="preserve" font-family="ProximaNova-Light" font-size="20.0" fill="#FEFFFF" transform="matrix(1.00, 0.00, -0.00, -1.00, 695.8, 737.2)"> </text><text xml:space="preserve" font-family="ProximaNova-Light" font-size="20.0" fill="#FEFFFF" transform="matrix(1.00, 0.00, -0.00, -1.00, 701.0, 737.2)">•</text><text xml:space="preserve" font-family="ProximaNova-Light" font-size="20.0" fill="#FEFFFF" transform="matrix(1.00, 0.00, -0.00, -1.00, 708.1, 737.2)"> </text><text xml:space="preserve" font-family="ProximaNova-Light" font-size="20.0" fill="#FEFFFF" transform="matrix(1.00, 0.00, -0.00, -1.00, 713.3, 737.2)">#</text><text xml:space="preserve" font-family="ProximaNova-Light" font-size="20.0" fill="#FEFFFF" transform="matrix(1.00, 0.00, -0.00, -1.00, 724.9, 737.2)">s</text><text xml:space="preserve" font-family="ProximaNova-Light" font-size="20.0" fill="#FEFFFF" transform="matrix(1.00, 0.00, -0.00, -1.00, 734.1, 737.2)">e</text><text xml:space="preserve" font-family="ProximaNova-Light" font-size="20.0" fill="#FEFFFF" transform="matrix(1.00, 0.00, -0.00, -1.00, 745.4, 737.2)">c</text><text xml:space="preserve" font-family="ProximaNova-Light" font-size="20.0" fill="#FEFFFF" transform="matrix(1.00, 0.00, -0.00, -1.00, 755.3, 737.2)">u</text><text xml:space="preserve" font-family="ProximaNova-Light" font-size="20.0" fill="#FEFFFF" transform="matrix(1.00, 0.00, -0.00, -1.00, 766.1, 737.2)">r</text><text xml:space="preserve" font-family="ProximaNova-Light" font-size="20.0" fill="#FEFFFF" transform="matrix(1.00, 0.00, -0.00, -1.00, 772.4, 737.2)">i</text><text xml:space="preserve" font-family="ProximaNova-Light" font-size="20.0" fill="#FEFFFF" transform="matrix(1.00, 0.00, -0.00, -1.00, 776.7, 737.2)">t</text><text xml:space="preserve" font-family="ProximaNova-Light" font-size="20.0" fill="#FEFFFF" transform="matrix(1.00, 0.00, -0.00, -1.00, 782.2, 737.2)">y</text><text xml:space="preserve" font-family="ProximaNova-Light" font-size="20.0" fill="#FEFFFF" transform="matrix(1.00, 0.00, -0.00, -1.00, 791.8, 737.2)"> </text><text xml:space="preserve" font-family="ProximaNova-Light" font-size="20.0" fill="#FEFFFF" transform="matrix(1.00, 0.00, -0.00, -1.00, 797.0, 737.2)">•</text><text xml:space="preserve" font-family="ProximaNova-Light" font-size="20.0" fill="#FEFFFF" transform="matrix(1.00, 0.00, -0.00, -1.00, 804.2, 737.2)"> </text><text xml:space="preserve" font-family="ProximaNova-Light" font-size="20.0" fill="#FEFFFF" transform="matrix(1.00, 0.00, -0.00, -1.00, 809.4, 737.2)">w</text><text xml:space="preserve" font-family="ProximaNova-Light" font-size="20.0" fill="#FEFFFF" transform="matrix(1.00, 0.00, -0.00, -1.00, 823.7, 737.2)">w</text><text xml:space="preserve" font-family="ProximaNova-Light" font-size="20.0" fill="#FEFFFF" transform="matrix(1.00, 0.00, -0.00, -1.00, 838.1, 737.2)">w</text><text xml:space="preserve" font-family="ProximaNova-Light" font-size="20.0" fill="#FEFFFF" transform="matrix(1.00, 0.00, -0.00, -1.00, 851.6, 737.2)">.</text><text xml:space="preserve" font-family="ProximaNova-Light" font-size="20.0" fill="#FEFFFF" transform="matrix(1.00, 0.00, -0.00, -1.00, 855.9, 737.2)">u</text><text xml:space="preserve" font-family="ProximaNova-Light" font-size="20.0" fill="#FEFFFF" transform="matrix(1.00, 0.00, -0.00, -1.00, 866.7, 737.2)">r</text><text xml:space="preserve" font-family="ProximaNova-Light" font-size="20.0" fill="#FEFFFF" transform="matrix(1.00, 0.00, -0.00, -1.00, 873.1, 737.2)">l</text><text xml:space="preserve" font-family="ProximaNova-Light" font-size="20.0" fill="#FEFFFF" transform="matrix(1.00, 0.00, -0.00, -1.00, 877.4, 737.2)">.</text><text xml:space="preserve" font-family="ProximaNova-Light" font-size="20.0" fill="#FEFFFF" transform="matrix(1.00, 0.00, -0.00, -1.00, 881.6, 737.2)">c</text><text xml:space="preserve" font-family="ProximaNova-Light" font-size="20.0" fill="#FEFFFF" transform="matrix(1.00, 0.00, -0.00, -1.00, 891.4, 737.2)">o</text><text xml:space="preserve" font-family="ProximaNova-Light" font-size="20.0" fill="#FEFFFF" transform="matrix(1.00, 0.00, -0.00, -1.00, 902.9, 737.2)">m</text><text xml:space="preserve" font-family="ProximaNova-Light" font-size="20.0" fill="#FEFFFF" transform="matrix(1.00, 0.00, -0.00, -1.00, 918.6, 737.2)">/</text><text xml:space="preserve" font-family="ProximaNova-Light" font-size="20.0" fill="#FEFFFF" transform="matrix(1.00, 0.00, -0.00, -1.00, 924.3, 737.2)">s</text><text xml:space="preserve" font-family="ProximaNova-Light" font-size="20.0" fill="#FEFFFF" transform="matrix(1.00, 0.00, -0.00, -1.00, 933.5, 737.2)">l</text><text xml:space="preserve" font-family="ProximaNova-Light" font-size="20.0" fill="#FEFFFF" transform="matrix(1.00, 0.00, -0.00, -1.00, 937.7, 737.2)">i</text><text xml:space="preserve" font-family="ProximaNova-Light" font-size="20.0" fill="#FEFFFF" transform="matrix(1.00, 0.00, -0.00, -1.00, 942.0, 737.2)">d</text><text xml:space="preserve" font-family="ProximaNova-Light" font-size="20.0" fill="#FEFFFF" transform="matrix(1.00, 0.00, -0.00, -1.00, 953.4, 737.2)">e</text><text xml:space="preserve" font-family="ProximaNova-Light" font-size="20.0" fill="#FEFFFF" transform="matrix(1.00, 0.00, -0.00, -1.00, 964.8, 737.2)">s</text><g><clipPath id="clip-44"><path d="M 808.4 733.5 L 974.0 733.5 L 974.0 735.9 L 808.4 735.9 Z M 808.4 733.5 "></path></clipPath><g clip-path="url(#clip-44)"><path d="M 353.5 26.3 L 518.1 26.3 " fill="none" stroke="#FEFFFF" stroke-width="0.40" stroke-miterlimit="0.00" transform="matrix(1.00, 0.00, 0.00, -1.00, 455.9, 761.0)"></path></g></g><text xml:space="preserve" font-family="ProximaNova-Light" font-size="45.0" fill="#FEFFFF" transform="matrix(1.00, 0.00, -0.00, -1.00, 56.0, 671.0)">U</text><text xml:space="preserve" font-family="ProximaNova-Light" font-size="45.0" fill="#FEFFFF" transform="matrix(1.00, 0.00, -0.00, -1.00, 94.1, 671.0)">S</text><text xml:space="preserve" font-family="ProximaNova-Light" font-size="45.0" fill="#FEFFFF" transform="matrix(1.00, 0.00, -0.00, -1.00, 127.4, 671.0)">E</text><text xml:space="preserve" font-family="ProximaNova-Light" font-size="45.0" fill="#FEFFFF" transform="matrix(1.00, 0.00, -0.00, -1.00, 160.0, 671.0)"> </text><text xml:space="preserve" font-family="ProximaNova-Light" font-size="45.0" fill="#FEFFFF" transform="matrix(1.00, 0.00, -0.00, -1.00, 178.8, 671.0)">S</text><text xml:space="preserve" font-family="ProximaNova-Light" font-size="45.0" fill="#FEFFFF" transform="matrix(1.00, 0.00, -0.00, -1.00, 212.1, 671.0)">T</text><text xml:space="preserve" font-family="ProximaNova-Light" font-size="45.0" fill="#FEFFFF" transform="matrix(1.00, 0.00, -0.00, -1.00, 244.6, 671.0)">R</text><text xml:space="preserve" font-family="ProximaNova-Light" font-size="45.0" fill="#FEFFFF" transform="matrix(1.00, 0.00, -0.00, -1.00, 278.6, 671.0)">O</text><text xml:space="preserve" font-family="ProximaNova-Light" font-size="45.0" fill="#FEFFFF" transform="matrix(1.00, 0.00, -0.00, -1.00, 320.1, 671.0)">N</text><text xml:space="preserve" font-family="ProximaNova-Light" font-size="45.0" fill="#FEFFFF" transform="matrix(1.00, 0.00, -0.00, -1.00, 358.8, 671.0)">G</text><text xml:space="preserve" font-family="ProximaNova-Light" font-size="45.0" fill="#FEFFFF" transform="matrix(1.00, 0.00, -0.00, -1.00, 398.0, 671.0)"> </text><text xml:space="preserve" font-family="ProximaNova-Light" font-size="45.0" fill="#FEFFFF" transform="matrix(1.00, 0.00, -0.00, -1.00, 416.9, 671.0)">P</text><text xml:space="preserve" font-family="ProximaNova-Light" font-size="45.0" fill="#FEFFFF" transform="matrix(1.00, 0.00, -0.00, -1.00, 446.2, 671.0)">A</text><text xml:space="preserve" font-family="ProximaNova-Light" font-size="45.0" fill="#FEFFFF" transform="matrix(1.00, 0.00, -0.00, -1.00, 481.7, 671.0)">S</text><text xml:space="preserve" font-family="ProximaNova-Light" font-size="45.0" fill="#FEFFFF" transform="matrix(1.00, 0.00, -0.00, -1.00, 515.1, 671.0)">S</text><text xml:space="preserve" font-family="ProximaNova-Light" font-size="45.0" fill="#FEFFFF" transform="matrix(1.00, 0.00, -0.00, -1.00, 548.4, 671.0)">W</text><text xml:space="preserve" font-family="ProximaNova-Light" font-size="45.0" fill="#FEFFFF" transform="matrix(1.00, 0.00, -0.00, -1.00, 593.7, 671.0)">O</text><text xml:space="preserve" font-family="ProximaNova-Light" font-size="45.0" fill="#FEFFFF" transform="matrix(1.00, 0.00, -0.00, -1.00, 635.3, 671.0)">R</text><text xml:space="preserve" font-family="ProximaNova-Light" font-size="45.0" fill="#FEFFFF" transform="matrix(1.00, 0.00, -0.00, -1.00, 669.3, 671.0)">D</text><text xml:space="preserve" font-family="ProximaNova-Light" font-size="45.0" fill="#FEFFFF" transform="matrix(1.00, 0.00, -0.00, -1.00, 707.6, 671.0)">S</text><text xml:space="preserve" font-family="ProximaNova-Light" font-size="32.4" fill="#24CAD3" transform="matrix(1.00, 0.00, -0.00, -1.00, 56.0, 541.3)">•</text><text xml:space="preserve" font-family="ProximaNova-Light" font-size="36.0" fill="#FEFFFF" transform="matrix(1.00, 0.00, -0.00, -1.00, 93.0, 541.0)">N</text><text xml:space="preserve" font-family="ProximaNova-Light" font-size="36.0" fill="#FEFFFF" transform="matrix(1.00, 0.00, -0.00, -1.00, 118.2, 541.0)">e</text><text xml:space="preserve" font-family="ProximaNova-Light" font-size="36.0" fill="#FEFFFF" transform="matrix(1.00, 0.00, -0.00, -1.00, 138.6, 541.0)">v</text><text xml:space="preserve" font-family="ProximaNova-Light" font-size="36.0" fill="#FEFFFF" transform="matrix(1.00, 0.00, -0.00, -1.00, 155.9, 541.0)">e</text><text xml:space="preserve" font-family="ProximaNova-Light" font-size="36.0" fill="#FEFFFF" transform="matrix(1.00, 0.00, -0.00, -1.00, 176.3, 541.0)">r</text><text xml:space="preserve" font-family="ProximaNova-Light" font-size="36.0" fill="#FEFFFF" transform="matrix(1.00, 0.00, -0.00, -1.00, 187.7, 541.0)"> </text><text xml:space="preserve" font-family="ProximaNova-Light" font-size="36.0" fill="#FEFFFF" transform="matrix(1.00, 0.00, -0.00, -1.00, 197.0, 541.0)">u</text><text xml:space="preserve" font-family="ProximaNova-Light" font-size="36.0" fill="#FEFFFF" transform="matrix(1.00, 0.00, -0.00, -1.00, 216.5, 541.0)">s</text><text xml:space="preserve" font-family="ProximaNova-Light" font-size="36.0" fill="#FEFFFF" transform="matrix(1.00, 0.00, -0.00, -1.00, 233.0, 541.0)">e</text><text xml:space="preserve" font-family="ProximaNova-Light" font-size="36.0" fill="#FEFFFF" transform="matrix(1.00, 0.00, -0.00, -1.00, 253.4, 541.0)"> </text><text xml:space="preserve" font-family="ProximaNova-Light" font-size="36.0" fill="#FEFFFF" transform="matrix(1.00, 0.00, -0.00, -1.00, 262.7, 541.0)">t</text><text xml:space="preserve" font-family="ProximaNova-Light" font-size="36.0" fill="#FEFFFF" transform="matrix(1.00, 0.00, -0.00, -1.00, 272.6, 541.0)">h</text><text xml:space="preserve" font-family="ProximaNova-Light" font-size="36.0" fill="#FEFFFF" transform="matrix(1.00, 0.00, -0.00, -1.00, 292.1, 541.0)">e</text><text xml:space="preserve" font-family="ProximaNova-Light" font-size="36.0" fill="#FEFFFF" transform="matrix(1.00, 0.00, -0.00, -1.00, 312.5, 541.0)"> </text><text xml:space="preserve" font-family="ProximaNova-Light" font-size="36.0" fill="#FEFFFF" transform="matrix(1.00, 0.00, -0.00, -1.00, 321.8, 541.0)">s</text><text xml:space="preserve" font-family="ProximaNova-Light" font-size="36.0" fill="#FEFFFF" transform="matrix(1.00, 0.00, -0.00, -1.00, 338.3, 541.0)">a</text><text xml:space="preserve" font-family="ProximaNova-Light" font-size="36.0" fill="#FEFFFF" transform="matrix(1.00, 0.00, -0.00, -1.00, 357.1, 541.0)">m</text><text xml:space="preserve" font-family="ProximaNova-Light" font-size="36.0" fill="#FEFFFF" transform="matrix(1.00, 0.00, -0.00, -1.00, 385.5, 541.0)">e</text><text xml:space="preserve" font-family="ProximaNova-Light" font-size="36.0" fill="#FEFFFF" transform="matrix(1.00, 0.00, -0.00, -1.00, 405.9, 541.0)"> </text><text xml:space="preserve" font-family="ProximaNova-Light" font-size="36.0" fill="#FEFFFF" transform="matrix(1.00, 0.00, -0.00, -1.00, 415.2, 541.0)">p</text><text xml:space="preserve" font-family="ProximaNova-Light" font-size="36.0" fill="#FEFFFF" transform="matrix(1.00, 0.00, -0.00, -1.00, 435.6, 541.0)">a</text><text xml:space="preserve" font-family="ProximaNova-Light" font-size="36.0" fill="#FEFFFF" transform="matrix(1.00, 0.00, -0.00, -1.00, 454.4, 541.0)">s</text><text xml:space="preserve" font-family="ProximaNova-Light" font-size="36.0" fill="#FEFFFF" transform="matrix(1.00, 0.00, -0.00, -1.00, 470.9, 541.0)">s</text><text xml:space="preserve" font-family="ProximaNova-Light" font-size="36.0" fill="#FEFFFF" transform="matrix(1.00, 0.00, -0.00, -1.00, 487.5, 541.0)">w</text><text xml:space="preserve" font-family="ProximaNova-Light" font-size="36.0" fill="#FEFFFF" transform="matrix(1.00, 0.00, -0.00, -1.00, 513.3, 541.0)">o</text><text xml:space="preserve" font-family="ProximaNova-Light" font-size="36.0" fill="#FEFFFF" transform="matrix(1.00, 0.00, -0.00, -1.00, 533.9, 541.0)">r</text><text xml:space="preserve" font-family="ProximaNova-Light" font-size="36.0" fill="#FEFFFF" transform="matrix(1.00, 0.00, -0.00, -1.00, 545.3, 541.0)">d</text><text xml:space="preserve" font-family="ProximaNova-Light" font-size="36.0" fill="#FEFFFF" transform="matrix(1.00, 0.00, -0.00, -1.00, 565.9, 541.0)"> </text><text xml:space="preserve" font-family="ProximaNova-Light" font-size="36.0" fill="#FEFFFF" transform="matrix(1.00, 0.00, -0.00, -1.00, 575.2, 541.0)">t</text><text xml:space="preserve" font-family="ProximaNova-Light" font-size="36.0" fill="#FEFFFF" transform="matrix(1.00, 0.00, -0.00, -1.00, 585.1, 541.0)">w</text><text xml:space="preserve" font-family="ProximaNova-Light" font-size="36.0" fill="#FEFFFF" transform="matrix(1.00, 0.00, -0.00, -1.00, 611.0, 541.0)">i</text><text xml:space="preserve" font-family="ProximaNova-Light" font-size="36.0" fill="#FEFFFF" transform="matrix(1.00, 0.00, -0.00, -1.00, 618.7, 541.0)">c</text><text xml:space="preserve" font-family="ProximaNova-Light" font-size="36.0" fill="#FEFFFF" transform="matrix(1.00, 0.00, -0.00, -1.00, 636.5, 541.0)">e</text><text xml:space="preserve" font-family="ProximaNova-Light" font-size="36.0" fill="#FEFFFF" transform="matrix(1.00, 0.00, -0.00, -1.00, 656.9, 541.0)"> </text><text xml:space="preserve" font-family="ProximaNova-Light" font-size="32.4" fill="#24CAD3" transform="matrix(1.00, 0.00, -0.00, -1.00, 56.0, 456.3)">•</text><text xml:space="preserve" font-family="ProximaNova-Light" font-size="36.0" fill="#FEFFFF" transform="matrix(1.00, 0.00, -0.00, -1.00, 93.0, 456.0)">R</text><text xml:space="preserve" font-family="ProximaNova-Light" font-size="36.0" fill="#FEFFFF" transform="matrix(1.00, 0.00, -0.00, -1.00, 113.3, 456.0)">e</text><text xml:space="preserve" font-family="ProximaNova-Light" font-size="36.0" fill="#FEFFFF" transform="matrix(1.00, 0.00, -0.00, -1.00, 133.7, 456.0)">q</text><text xml:space="preserve" font-family="ProximaNova-Light" font-size="36.0" fill="#FEFFFF" transform="matrix(1.00, 0.00, -0.00, -1.00, 154.1, 456.0)">u</text><text xml:space="preserve" font-family="ProximaNova-Light" font-size="36.0" fill="#FEFFFF" transform="matrix(1.00, 0.00, -0.00, -1.00, 173.6, 456.0)">i</text><text xml:space="preserve" font-family="ProximaNova-Light" font-size="36.0" fill="#FEFFFF" transform="matrix(1.00, 0.00, -0.00, -1.00, 181.3, 456.0)">r</text><text xml:space="preserve" font-family="ProximaNova-Light" font-size="36.0" fill="#FEFFFF" transform="matrix(1.00, 0.00, -0.00, -1.00, 192.7, 456.0)">e</text><text xml:space="preserve" font-family="ProximaNova-Light" font-size="36.0" fill="#FEFFFF" transform="matrix(1.00, 0.00, -0.00, -1.00, 213.1, 456.0)"> </text><text xml:space="preserve" font-family="ProximaNova-Light" font-size="36.0" fill="#FEFFFF" transform="matrix(1.00, 0.00, -0.00, -1.00, 222.4, 456.0)">u</text><text xml:space="preserve" font-family="ProximaNova-Light" font-size="36.0" fill="#FEFFFF" transform="matrix(1.00, 0.00, -0.00, -1.00, 241.9, 456.0)">s</text><text xml:space="preserve" font-family="ProximaNova-Light" font-size="36.0" fill="#FEFFFF" transform="matrix(1.00, 0.00, -0.00, -1.00, 258.4, 456.0)">e</text><text xml:space="preserve" font-family="ProximaNova-Light" font-size="36.0" fill="#FEFFFF" transform="matrix(1.00, 0.00, -0.00, -1.00, 278.8, 456.0)">r</text><text xml:space="preserve" font-family="ProximaNova-Light" font-size="36.0" fill="#FEFFFF" transform="matrix(1.00, 0.00, -0.00, -1.00, 290.2, 456.0)">s</text><text xml:space="preserve" font-family="ProximaNova-Light" font-size="36.0" fill="#FEFFFF" transform="matrix(1.00, 0.00, -0.00, -1.00, 306.7, 456.0)"> </text><text xml:space="preserve" font-family="ProximaNova-Light" font-size="36.0" fill="#FEFFFF" transform="matrix(1.00, 0.00, -0.00, -1.00, 316.1, 456.0)">t</text><text xml:space="preserve" font-family="ProximaNova-Light" font-size="36.0" fill="#FEFFFF" transform="matrix(1.00, 0.00, -0.00, -1.00, 326.0, 456.0)">o</text><text xml:space="preserve" font-family="ProximaNova-Light" font-size="36.0" fill="#FEFFFF" transform="matrix(1.00, 0.00, -0.00, -1.00, 346.5, 456.0)"> </text><text xml:space="preserve" font-family="ProximaNova-Light" font-size="36.0" fill="#FEFFFF" transform="matrix(1.00, 0.00, -0.00, -1.00, 355.8, 456.0)">u</text><text xml:space="preserve" font-family="ProximaNova-Light" font-size="36.0" fill="#FEFFFF" transform="matrix(1.00, 0.00, -0.00, -1.00, 375.3, 456.0)">s</text><text xml:space="preserve" font-family="ProximaNova-Light" font-size="36.0" fill="#FEFFFF" transform="matrix(1.00, 0.00, -0.00, -1.00, 391.8, 456.0)">e</text><text xml:space="preserve" font-family="ProximaNova-Light" font-size="36.0" fill="#FEFFFF" transform="matrix(1.00, 0.00, -0.00, -1.00, 412.2, 456.0)"> </text><text xml:space="preserve" font-family="ProximaNova-Light" font-size="36.0" fill="#FEFFFF" transform="matrix(1.00, 0.00, -0.00, -1.00, 421.5, 456.0)">s</text><text xml:space="preserve" font-family="ProximaNova-Light" font-size="36.0" fill="#FEFFFF" transform="matrix(1.00, 0.00, -0.00, -1.00, 438.1, 456.0)">t</text><text xml:space="preserve" font-family="ProximaNova-Light" font-size="36.0" fill="#FEFFFF" transform="matrix(1.00, 0.00, -0.00, -1.00, 448.0, 456.0)">r</text><text xml:space="preserve" font-family="ProximaNova-Light" font-size="36.0" fill="#FEFFFF" transform="matrix(1.00, 0.00, -0.00, -1.00, 459.4, 456.0)">o</text><text xml:space="preserve" font-family="ProximaNova-Light" font-size="36.0" fill="#FEFFFF" transform="matrix(1.00, 0.00, -0.00, -1.00, 479.9, 456.0)">n</text><text xml:space="preserve" font-family="ProximaNova-Light" font-size="36.0" fill="#FEFFFF" transform="matrix(1.00, 0.00, -0.00, -1.00, 499.4, 456.0)">g</text><text xml:space="preserve" font-family="ProximaNova-Light" font-size="36.0" fill="#FEFFFF" transform="matrix(1.00, 0.00, -0.00, -1.00, 519.9, 456.0)"> </text><text xml:space="preserve" font-family="ProximaNova-Light" font-size="36.0" fill="#FEFFFF" transform="matrix(1.00, 0.00, -0.00, -1.00, 529.2, 456.0)">p</text><text xml:space="preserve" font-family="ProximaNova-Light" font-size="36.0" fill="#FEFFFF" transform="matrix(1.00, 0.00, -0.00, -1.00, 549.6, 456.0)">a</text><text xml:space="preserve" font-family="ProximaNova-Light" font-size="36.0" fill="#FEFFFF" transform="matrix(1.00, 0.00, -0.00, -1.00, 568.4, 456.0)">s</text><text xml:space="preserve" font-family="ProximaNova-Light" font-size="36.0" fill="#FEFFFF" transform="matrix(1.00, 0.00, -0.00, -1.00, 584.9, 456.0)">s</text><text xml:space="preserve" font-family="ProximaNova-Light" font-size="36.0" fill="#FEFFFF" transform="matrix(1.00, 0.00, -0.00, -1.00, 601.4, 456.0)">w</text><text xml:space="preserve" font-family="ProximaNova-Light" font-size="36.0" fill="#FEFFFF" transform="matrix(1.00, 0.00, -0.00, -1.00, 627.3, 456.0)">o</text><text xml:space="preserve" font-family="ProximaNova-Light" font-size="36.0" fill="#FEFFFF" transform="matrix(1.00, 0.00, -0.00, -1.00, 647.9, 456.0)">r</text><text xml:space="preserve" font-family="ProximaNova-Light" font-size="36.0" fill="#FEFFFF" transform="matrix(1.00, 0.00, -0.00, -1.00, 659.3, 456.0)">d</text><text xml:space="preserve" font-family="ProximaNova-Light" font-size="36.0" fill="#FEFFFF" transform="matrix(1.00, 0.00, -0.00, -1.00, 679.8, 456.0)">s</text><image xlink:href="../../5BBB9CFA-35F9-4C68-8A3B-A4A31116ABEA/assets/2391197C56E058768210C53EB22A5DAD.png" width="498.00" height="404.00" transform="matrix(1.00, 0.00, -0.00, -1.00, 263.0, 422.0)"></image></g></svg>